<svg id="full" width="977" height="328" viewBox="0 0 977 328" fill="none" xmlns="http://www.w3.org/2000/svg">
<path id="letter-j" d="M620.345 112.375C621.735 114.206 622.399 116.287 622.338 118.619C622.282 120.771 621.514 122.635 620.036 124.212C618.382 125.604 616.388 126.27 614.053 126.209C611.898 126.153 610.032 125.386 608.453 123.909C607.059 122.257 606.39 120.355 606.446 118.203C606.507 115.871 607.279 113.827 608.763 112.071C610.417 110.679 612.321 110.011 614.476 110.067C616.81 110.128 618.767 110.898 620.345 112.375Z" fill="black"/>
<path id="letter-u" fill-rule="evenodd" clip-rule="evenodd" d="M805.746 187.441C815.977 187.889 826.371 188.969 836.928 190.681C847.669 192.218 858.229 193.841 868.607 195.549C878.984 197.256 889.008 198.775 898.676 200.105C908.35 201.256 917.232 201.757 925.322 201.61C933.596 201.289 940.907 200.044 947.253 197.877C953.599 195.71 958.546 192.071 962.094 186.959C961.588 185.689 961.628 184.165 962.214 182.385C962.979 180.611 963.813 179.645 964.716 179.49C965.614 179.513 966.221 180.337 966.538 181.96C966.855 183.584 965.983 185.984 963.923 189.161C959.615 195.868 954.096 200.749 947.367 203.803C940.639 206.857 933.042 208.722 924.579 209.398C916.116 210.074 906.96 209.744 897.111 208.41C887.263 207.075 877.152 205.464 866.779 203.577C856.406 201.69 845.946 199.711 835.398 197.64C825.03 195.574 814.827 194.051 804.79 193.07C791.525 191.825 780.923 191.817 772.984 193.045C765.229 194.098 758.699 196.439 753.393 200.07C748.266 203.704 743.645 208.609 739.53 214.782C735.595 220.961 730.818 228.374 725.201 237.021C722.385 241.614 719.522 244.59 716.611 245.949C713.696 247.488 710.998 247.597 708.517 246.276C706.031 245.134 703.757 242.741 701.696 239.098C699.81 235.638 698.314 231.022 697.207 225.25C696.384 222.357 695.847 218.843 695.596 214.709C695.345 210.574 695.186 206.352 695.119 202.043C695.053 197.734 695.071 193.607 695.174 189.661C695.282 185.536 695.463 182.041 695.718 179.176C693.252 184.137 690.703 188.826 688.072 193.244C685.441 197.662 682.365 201.889 678.845 205.925C675.5 210.144 671.985 214.001 668.299 217.494C664.798 220.812 660.985 222.328 656.859 222.04C653.268 221.946 649.988 220.245 647.02 216.937C644.056 213.449 641.962 207.651 640.737 199.542C640.136 195.04 640.265 190.108 641.124 184.746C641.809 179.2 643.027 173.848 644.779 168.689C646.532 163.53 648.811 158.834 651.617 154.6C654.608 150.191 657.932 146.778 661.589 144.362C664.873 142.473 668.131 141.571 671.363 141.656C674.775 141.745 678.079 142.55 681.273 144.069C684.473 145.409 687.476 147.373 690.284 149.959C693.091 152.545 695.624 155.303 697.884 158.234C698.534 147.124 699.546 135.933 700.919 124.662C702.477 113.216 704.384 102.139 706.641 91.4296C708.898 80.7202 711.59 70.5606 714.717 60.9508C718.023 51.3458 721.84 42.8309 726.168 35.4063C729.366 29.9263 733.248 25.8103 737.812 23.0582C742.376 20.3062 746.717 19.2532 750.833 19.8994C755.133 20.371 758.668 22.6173 761.438 26.6382C764.388 30.6639 765.757 36.7122 765.545 44.783C765.348 52.3158 763.608 60.4363 760.325 69.1446C757.226 77.6783 753.145 86.0067 748.08 94.13C743.2 102.079 737.618 109.381 731.334 116.036C725.234 122.517 718.903 127.556 712.34 131.153C711.623 137.954 710.797 145.471 709.862 153.702C709.112 161.759 708.447 169.997 707.867 178.417C707.288 186.837 706.8 195.17 706.404 203.416C706.193 211.487 706.27 218.847 706.635 225.497C707.638 235.215 709.553 241.008 712.379 242.877C715.385 244.751 719.051 241.975 723.379 234.55C728.458 225.889 733.144 218.474 737.439 212.305C741.913 206.14 746.985 201.158 752.655 197.358C758.509 193.383 765.59 190.608 773.898 189.03C782.205 187.453 792.821 186.923 805.746 187.441ZM730.355 112.241C724.619 118.552 718.829 123.516 712.984 127.132C713.711 119.972 714.626 112.458 715.731 104.59C717.015 96.7265 718.656 88.9623 720.653 81.2972C722.656 73.4527 724.918 65.974 727.441 58.8611C729.968 51.5688 732.927 44.916 736.319 38.9027C739.338 33.418 742.491 29.6419 745.78 27.5743C749.073 25.3273 751.968 24.5955 754.463 25.3787C757.143 25.9873 759.154 28.104 760.496 31.7286C762.019 35.358 762.523 40.1272 762.008 46.0365C761.646 53.0265 760.012 60.5216 757.107 68.5219C754.202 76.5222 750.406 84.23 745.72 91.6452C741.213 99.0652 736.091 105.931 730.355 112.241ZM692 156.465C694.094 158.853 695.921 161.144 697.481 163.339L696.454 171.657C694.38 175.372 691.647 180.236 688.255 186.249C685.043 192.267 681.393 197.825 677.306 202.923L672.289 209.253C670.801 211.188 669.23 212.852 667.576 214.244C665.922 215.637 664.278 216.671 662.643 217.346C661.192 217.846 659.758 217.719 658.34 216.964C656.384 216.195 654.812 214.448 653.625 211.725C652.444 208.823 651.748 204.497 651.539 198.748C651.61 196.058 651.971 192.568 652.622 188.278C653.458 183.813 654.563 179.355 655.937 174.904C657.496 170.278 659.319 165.839 661.407 161.586C663.675 157.338 666.191 153.904 668.955 151.285C671.899 148.67 674.717 147.397 677.411 147.468C680.284 147.543 682.956 148.421 685.428 150.101C687.9 151.781 690.091 153.902 692 156.465Z" fill="black"/>
<path id="letter-s" d="M606.792 138.387C607.004 137.137 607.746 136.259 609.017 135.753C610.468 135.253 611.909 135.111 613.341 135.328C614.957 135.371 616.205 135.762 617.084 136.503C618.142 137.249 618.566 138.247 618.353 139.498C617.513 144.142 616.757 148.968 616.087 153.976C615.422 158.804 614.933 163.727 614.622 168.744C614.396 170.533 614.155 172.86 613.9 175.725C613.65 178.41 613.483 181.367 613.398 184.596C613.319 187.645 613.324 190.875 613.414 194.288C613.505 197.7 613.687 201.025 613.962 204.263C614.383 208.761 615.005 212.456 615.828 215.349C616.646 218.422 617.671 220.423 618.905 221.353C620.313 222.466 621.932 222.419 623.761 221.211C625.585 220.182 627.807 217.637 630.43 213.578C632.494 210.222 634.662 206.33 636.935 201.903C639.391 197.301 641.574 192.871 643.482 188.614C645.57 184.361 647.377 180.55 648.903 177.18C650.429 173.81 651.388 171.502 651.78 170.256C652.162 169.368 652.8 169.026 653.694 169.229C654.587 169.432 654.927 170.158 654.715 171.409C653.756 173.717 652.419 176.733 650.704 180.457C649.174 184.007 647.454 187.91 645.546 192.168C643.637 196.425 641.549 200.678 639.281 204.926C637.019 208.995 634.765 212.704 632.521 216.056C626.36 224.868 620.619 227.948 615.298 225.296C610.156 222.649 606.476 215.643 604.258 204.278C603.127 199.403 602.456 194.18 602.242 188.611C602.033 182.862 602.183 177.123 602.693 171.393C603.023 165.659 603.53 160.018 604.214 154.473C605.083 148.752 605.942 143.39 606.792 138.387Z" fill="black"/>
<path id="letter-a" fill-rule="evenodd" clip-rule="evenodd" d="M558.144 132.999C558.536 131.753 559.367 130.878 560.638 130.373C562.089 129.872 563.53 129.73 564.962 129.947C566.399 129.985 567.557 130.374 568.436 131.115C569.494 131.861 569.918 132.859 569.705 134.11C569.044 138.759 568.379 143.587 567.709 148.595C567.223 153.428 566.734 158.351 566.244 163.363C566.017 165.152 565.776 167.479 565.522 170.344C565.451 173.034 565.284 175.991 565.02 179.215C564.94 182.264 564.945 185.494 565.036 188.907C565.126 192.319 565.308 195.644 565.583 198.882C566.227 208.59 567.868 214.556 570.505 216.779C573.143 219.002 576.991 216.141 582.051 208.197C584.295 204.846 586.553 200.957 588.826 196.529C591.103 191.923 593.195 187.49 595.104 183.233C597.192 178.98 598.909 175.167 600.255 171.792C601.781 168.422 602.83 166.116 603.401 164.875C603.784 163.987 604.422 163.645 605.315 163.848C606.388 164.055 606.908 164.787 606.875 166.042C605.736 168.346 604.31 171.36 602.595 175.084C601.064 178.633 599.255 182.534 597.167 186.787C595.259 191.044 593.171 195.297 590.903 199.545C588.64 203.614 586.386 207.324 584.142 210.675C580.972 215.079 577.932 217.96 575.021 219.32C572.106 220.859 569.405 221.057 566.919 219.916C564.433 218.774 562.16 216.381 560.099 212.737C558.213 209.278 556.716 204.662 555.61 198.89C554.323 193.113 553.673 187.084 553.657 180.802C553.827 174.345 554.166 168.252 554.675 162.522C552.03 167.478 549.301 172.163 546.49 176.576C543.859 180.994 540.873 185.223 537.533 189.263C534.188 193.483 530.673 197.34 526.987 200.833C523.306 204.146 519.403 205.659 515.278 205.372C511.686 205.278 508.496 203.579 505.708 200.275C502.924 196.793 500.919 190.997 499.694 182.888C499.098 178.206 499.142 173.093 499.826 167.547C500.51 162.001 501.821 156.561 503.758 151.228C505.874 145.899 508.425 141.12 511.411 136.891C514.581 132.487 518.08 129.258 521.907 127.205C525.919 124.977 530.342 124.195 535.176 124.86C540.015 125.346 545.159 127.903 550.609 132.533C552.022 133.467 553.159 134.664 554.019 136.122C555.059 137.585 556.006 139.135 556.862 140.773L558.144 132.999ZM537.729 130.311C541.325 130.226 545.141 132.031 549.177 135.726C552.864 139.053 555.194 142.704 556.168 146.677L555.142 154.996C553.068 158.711 550.335 163.575 546.943 169.588C543.551 175.601 539.812 181.157 535.725 186.255C534.232 188.369 532.649 190.482 530.977 192.592C529.488 194.527 527.917 196.191 526.264 197.583C524.61 198.976 522.966 200.009 521.331 200.685C519.7 201.18 518.086 201.048 516.489 200.289C514.712 199.524 513.23 197.78 512.044 195.057C511.042 192.159 510.436 187.836 510.227 182.087C510.123 179.213 510.488 175.543 511.324 171.078C512.16 166.613 513.357 162.068 514.916 157.443C516.474 152.817 518.387 148.38 520.655 144.132C522.923 139.884 525.436 136.54 528.195 134.1C531.139 131.485 534.317 130.222 537.729 130.311Z" fill="black"/>
<path id="letter-i" fill-rule="evenodd" clip-rule="evenodd" d="M466.925 188.585L459.792 172.784C455.698 164.421 452.221 156.522 449.361 149.089C446.501 141.656 446.141 134.826 448.28 128.601C449.636 124.867 451.772 122.231 454.687 120.692C457.428 118.969 459.963 118.228 462.292 118.468C464.802 118.713 466.659 119.839 467.864 121.845C469.07 123.851 468.91 126.538 467.384 129.909C466.042 133.104 463.349 136.443 459.305 139.927C458.393 140.442 457.587 140.331 456.887 139.595C456.367 138.863 456.568 138.061 457.49 137.187C460.986 134.048 463.306 131.238 464.449 128.755C465.403 126.626 465.538 124.925 464.852 123.65C464.346 122.381 463.467 121.64 462.215 121.428C460.963 121.215 459.604 121.628 458.139 122.667C456.675 123.705 455.638 125.563 455.028 128.239C454.23 131.269 454.236 134.5 455.044 137.931C455.673 141.357 456.661 144.793 458.009 148.239C459.361 151.505 460.895 154.686 462.611 157.782C464.506 160.882 466.231 163.62 467.787 165.994L476.529 182.106C480.725 179.703 485.197 177.038 489.946 174.112C494.695 171.185 498.732 167.97 502.059 164.468C502.791 163.949 503.507 164.057 504.207 164.794C505.09 165.355 505.072 166.072 504.15 166.946C500.819 170.627 496.69 173.929 491.761 176.851C487.017 179.599 482.453 182.351 478.068 185.108C479.94 189.105 481.71 193.549 483.379 198.438C485.232 203.153 486.363 208.028 486.77 213.064C487.357 218.105 487.05 222.943 485.851 227.578C484.651 232.213 482.027 236.362 477.978 240.025C475.034 242.64 471.752 244.438 468.133 245.42C464.693 246.407 461.366 246.499 458.152 245.697C454.934 245.075 452.009 243.562 449.376 241.16C446.739 238.937 444.846 235.747 443.697 231.589C442.373 227.247 442.216 222.935 443.227 218.654C444.233 214.553 445.952 210.649 448.385 206.944C450.639 203.234 453.424 199.807 456.741 196.664C460.058 193.52 463.452 190.827 466.925 188.585ZM474.367 223.508C473.914 227.086 472.749 230.376 470.874 233.377C466.759 239.551 462.19 242.483 457.166 242.172C452.323 241.865 448.827 238.095 446.681 230.859C445.716 226.527 445.732 222.489 446.728 218.746C447.545 214.999 448.986 211.447 451.051 208.091C453.115 204.735 455.622 201.66 458.57 198.865C461.698 196.076 464.816 193.645 467.925 191.572C469.282 194.659 470.542 198.012 471.705 201.632C472.868 205.252 473.672 208.863 474.117 212.464C474.737 216.249 474.82 219.93 474.367 223.508Z" fill="black"/>
<path id="letter-d" d="M290.744 139.547C290.956 138.297 291.698 137.419 292.969 136.914C294.42 136.413 295.861 136.271 297.293 136.488C298.729 136.526 299.977 136.918 301.036 137.663C302.094 138.409 302.517 139.407 302.305 140.658C300.808 149.772 299.475 159.518 298.305 169.897C298.031 173.48 297.848 177.064 297.754 180.651C297.664 184.059 297.897 188.911 298.451 195.207C298.872 199.705 299.494 203.4 300.317 206.294C301.135 209.366 302.16 211.367 303.394 212.297C304.802 213.411 306.421 213.363 308.25 212.155C310.073 211.126 312.207 208.579 314.649 204.515C316.147 202.221 317.753 199.212 319.468 195.488C321.187 191.585 322.911 187.502 324.64 183.24C326.374 178.798 328.018 174.355 329.572 169.908C331.13 165.283 332.5 161.011 333.681 157.094C335.041 153.181 336.116 149.889 336.904 147.217C337.877 144.371 338.553 142.594 338.931 141.886L338.945 141.348C339.125 141.353 339.217 141.265 339.221 141.086C339.788 140.024 340.705 139.33 341.971 139.004C343.238 138.679 344.497 138.622 345.749 138.834C347.181 139.051 348.337 139.53 349.216 140.271C350.095 141.012 350.428 142.008 350.216 143.259C349.796 145.581 349.479 147.367 349.267 148.618L349.182 151.846C349.154 152.922 349.034 154.086 348.821 155.337C348.609 156.587 348.38 158.466 348.135 160.972C347.908 162.761 347.644 165.984 347.342 170.643C347.041 175.301 346.73 180.319 346.409 185.694L345.986 201.836C346.03 207.042 346.189 211.264 346.463 214.502C346.885 218.999 347.417 222.693 348.06 225.581C348.878 228.654 349.904 230.655 351.137 231.584C352.546 232.698 354.164 232.651 355.993 231.442C358.001 230.238 360.316 227.607 362.938 223.548C365.182 220.196 367.464 215.41 369.783 209.19C372.282 202.973 374.604 196.663 376.748 190.258C379.072 183.858 381.021 178.076 382.593 172.912C384.171 167.569 385.25 164.098 385.831 162.498C386.214 161.61 386.852 161.268 387.745 161.471C388.638 161.674 389.068 162.403 389.035 163.658C387.878 166.679 386.416 171.038 384.65 176.735C382.888 182.252 380.937 188.124 378.797 194.35C376.658 200.575 374.346 206.527 371.861 212.205C369.551 218.067 367.274 222.674 365.03 226.025C358.689 234.833 352.948 237.913 347.807 235.266C342.665 232.619 338.893 225.7 336.49 214.51C334.901 206.571 334.24 197.49 334.508 187.267C334.96 176.87 335.759 166.93 336.906 157.447C335.541 161.54 333.987 165.986 332.244 170.786C330.681 175.591 329.03 180.304 327.292 184.925C325.558 189.366 323.829 193.628 322.105 197.711C320.386 201.614 318.687 204.711 317.01 207C314.019 211.408 311.069 214.293 308.158 215.652C305.243 217.191 302.542 217.39 300.056 216.248C297.57 215.106 295.297 212.713 293.236 209.07C291.35 205.61 289.764 200.992 288.477 195.215C287.527 190.344 286.93 185.662 286.689 181.169C286.452 176.497 286.571 171.923 287.048 167.449C287.345 162.97 287.821 158.495 288.478 154.026C289.138 149.377 289.894 144.551 290.744 139.547Z" fill="black"/>
<path id="ellipse" fill-rule="evenodd" clip-rule="evenodd" d="M252.712 128.846L251.307 161.922L249.675 193.377C253.185 189.7 256.415 186.464 259.363 183.67L267.655 175.811L275.947 167.951C278.891 165.336 282.021 162.457 285.338 159.313C286.08 158.435 286.892 158.277 287.776 158.839C288.844 159.226 288.821 160.122 287.706 161.529C283.477 165.187 279.796 168.501 276.664 171.47C273.715 174.264 270.857 177.061 268.088 179.86C265.324 182.48 262.465 185.277 259.512 188.25C256.744 191.049 253.422 194.373 249.548 198.22C249.213 204.133 248.772 210.673 248.225 217.837C247.674 225.181 246.94 232.61 246.025 240.124C245.109 247.638 243.926 255.056 242.477 262.376C241.027 269.697 239.233 276.47 237.093 282.695C233.805 291.583 230.043 298.035 225.804 302.052C221.382 306.244 217.2 308.108 213.259 307.646C209.133 307.359 205.697 304.756 202.951 299.838C200.2 295.1 198.85 288.334 198.9 279.541C198.909 272.363 200.082 265.304 202.42 258.366C204.753 251.607 207.802 244.956 211.568 238.414C215.149 232.047 219.261 225.963 223.906 220.162C228.55 214.361 233.095 208.916 237.541 203.828L238.419 185.746L239.297 167.665L241.052 131.502C234.244 137.605 226.312 141.974 217.259 144.608C208.03 147.059 198.111 148.414 187.502 148.675C176.898 148.756 165.953 148.111 154.668 146.738C143.204 145.361 131.834 143.807 120.558 142.076C109.287 140.166 98.2812 138.442 87.5397 136.904C76.8029 135.187 66.9428 134.301 57.9594 134.245C48.7965 134.185 40.7726 135.231 33.8877 137.384C26.8233 139.532 21.3328 143.337 17.4161 148.798C17.922 150.067 17.8821 151.592 17.2964 153.371C16.5311 155.146 15.6972 156.111 14.7947 156.267C13.8968 156.244 13.2894 155.42 12.9725 153.796C12.6557 152.173 13.5271 149.773 15.587 146.596C20.2689 139.36 26.4231 134.227 34.0498 131.196C41.5015 127.981 49.9908 126.319 59.5175 126.21C69.049 125.921 79.273 126.637 90.1894 128.359C101.106 130.08 112.285 132.078 123.726 134.352C135.171 136.446 146.619 138.451 158.07 140.366C169.341 142.277 180.094 143.366 190.33 143.634C200.57 143.723 210.123 142.627 218.987 140.346C227.673 138.061 235.155 133.68 241.434 127.204C241.817 126.317 242.641 125.71 243.908 125.385C245.174 125.059 246.434 125.002 247.686 125.214C249.118 125.431 250.276 125.82 251.159 126.382C252.223 126.948 252.74 127.77 252.712 128.846ZM224.884 223.956C228.981 218.5 233.065 213.492 237.138 208.932C236.997 214.313 236.752 220.229 236.403 226.681C235.875 233.128 235.167 239.571 234.28 246.009C233.388 252.626 232.321 259.059 231.079 265.308C229.833 271.737 228.331 277.62 226.574 282.958C224.056 289.892 221.411 294.848 218.637 297.826C215.68 300.979 213.041 302.256 210.72 301.657C208.216 301.233 206.204 299.116 204.687 295.307C202.985 291.673 202.134 286.446 202.133 279.626C202.127 272.985 203.198 266.373 205.347 259.789C207.492 253.384 210.26 247.174 213.652 241.161C216.865 235.143 220.609 229.408 224.884 223.956Z" fill="black"/>
</svg>
