<svg width="969" height="751" viewBox="0 0 969 751" fill="none" xmlns="http://www.w3.org/2000/svg">
<path d="M173.5 573C173.167 573 172.883 572.9 172.65 572.7C172.45 572.467 172.35 572.183 172.35 571.85V539.2C172.35 538.833 172.45 538.55 172.65 538.35C172.883 538.117 173.167 538 173.5 538H193.9C194.267 538 194.55 538.117 194.75 538.35C194.983 538.55 195.1 538.833 195.1 539.2V541.2C195.1 541.533 194.983 541.817 194.75 542.05C194.55 542.25 194.267 542.35 193.9 542.35H177.2V554H192.9C193.267 554 193.55 554.117 193.75 554.35C193.983 554.55 194.1 554.833 194.1 555.2V557.2C194.1 557.533 193.983 557.817 193.75 558.05C193.517 558.25 193.233 558.35 192.9 558.35H177.2V571.85C177.2 572.183 177.083 572.467 176.85 572.7C176.617 572.9 176.333 573 176 573H173.5ZM244.905 573.5C240.538 573.5 237.155 572.367 234.755 570.1C232.388 567.8 231.138 564.35 231.005 559.75C230.972 558.75 230.955 557.333 230.955 555.5C230.955 553.667 230.972 552.267 231.005 551.3C231.138 546.8 232.438 543.383 234.905 541.05C237.372 538.683 240.705 537.5 244.905 537.5C249.072 537.5 252.388 538.683 254.855 541.05C257.322 543.383 258.622 546.8 258.755 551.3C258.822 553.233 258.855 554.633 258.855 555.5C258.855 556.333 258.822 557.75 258.755 559.75C258.622 564.35 257.355 567.8 254.955 570.1C252.588 572.367 249.238 573.5 244.905 573.5ZM244.905 569.25C247.538 569.25 249.638 568.45 251.205 566.85C252.772 565.25 253.622 562.8 253.755 559.5C253.822 557.5 253.855 556.167 253.855 555.5C253.855 554.767 253.822 553.433 253.755 551.5C253.622 548.2 252.755 545.75 251.155 544.15C249.588 542.55 247.505 541.75 244.905 541.75C242.272 541.75 240.155 542.55 238.555 544.15C236.988 545.75 236.138 548.2 236.005 551.5C235.972 552.467 235.955 553.8 235.955 555.5C235.955 557.167 235.972 558.5 236.005 559.5C236.138 562.8 236.988 565.25 238.555 566.85C240.155 568.45 242.272 569.25 244.905 569.25ZM305.211 573C304.877 573 304.594 572.9 304.361 572.7C304.161 572.467 304.061 572.183 304.061 571.85V542.45H294.461C294.127 542.45 293.844 542.35 293.611 542.15C293.411 541.917 293.311 541.633 293.311 541.3V539.2C293.311 538.867 293.411 538.583 293.611 538.35C293.844 538.117 294.127 538 294.461 538H318.561C318.927 538 319.211 538.117 319.411 538.35C319.644 538.55 319.761 538.833 319.761 539.2V541.3C319.761 541.633 319.644 541.917 319.411 542.15C319.177 542.35 318.894 542.45 318.561 542.45H309.011V571.85C309.011 572.183 308.894 572.467 308.661 572.7C308.427 572.9 308.144 573 307.811 573H305.211ZM368.233 573.5C363.867 573.5 360.483 572.367 358.083 570.1C355.717 567.8 354.467 564.35 354.333 559.75C354.3 558.75 354.283 557.333 354.283 555.5C354.283 553.667 354.3 552.267 354.333 551.3C354.467 546.8 355.767 543.383 358.233 541.05C360.7 538.683 364.033 537.5 368.233 537.5C372.4 537.5 375.717 538.683 378.183 541.05C380.65 543.383 381.95 546.8 382.083 551.3C382.15 553.233 382.183 554.633 382.183 555.5C382.183 556.333 382.15 557.75 382.083 559.75C381.95 564.35 380.683 567.8 378.283 570.1C375.917 572.367 372.567 573.5 368.233 573.5ZM368.233 569.25C370.867 569.25 372.967 568.45 374.533 566.85C376.1 565.25 376.95 562.8 377.083 559.5C377.15 557.5 377.183 556.167 377.183 555.5C377.183 554.767 377.15 553.433 377.083 551.5C376.95 548.2 376.083 545.75 374.483 544.15C372.917 542.55 370.833 541.75 368.233 541.75C365.6 541.75 363.483 542.55 361.883 544.15C360.317 545.75 359.467 548.2 359.333 551.5C359.3 552.467 359.283 553.8 359.283 555.5C359.283 557.167 359.3 558.5 359.333 559.5C359.467 562.8 360.317 565.25 361.883 566.85C363.483 568.45 365.6 569.25 368.233 569.25ZM433.221 573.5C428.854 573.5 425.454 572.317 423.021 569.95C420.621 567.55 419.338 564.283 419.171 560.15C419.138 559.15 419.121 557.583 419.121 555.45C419.121 553.283 419.138 551.717 419.171 550.75C419.338 546.65 420.638 543.417 423.071 541.05C425.504 538.683 428.888 537.5 433.221 537.5C436.154 537.5 438.638 538.033 440.671 539.1C442.738 540.133 444.288 541.4 445.321 542.9C446.354 544.4 446.904 545.8 446.971 547.1V547.2C446.971 547.467 446.871 547.683 446.671 547.85C446.471 548.017 446.221 548.1 445.921 548.1H442.971C442.638 548.1 442.388 548.05 442.221 547.95C442.088 547.817 441.954 547.567 441.821 547.2C441.321 545.7 440.354 544.417 438.921 543.35C437.521 542.283 435.621 541.75 433.221 541.75C430.454 541.75 428.288 542.5 426.721 544C425.154 545.5 424.304 547.833 424.171 551C424.138 551.967 424.121 553.45 424.121 555.45C424.121 557.417 424.138 558.9 424.171 559.9C424.304 563.1 425.154 565.467 426.721 567C428.288 568.5 430.454 569.25 433.221 569.25C436.021 569.25 438.254 568.483 439.921 566.95C441.588 565.417 442.421 563.117 442.421 560.05V557.95H434.921C434.588 557.95 434.304 557.85 434.071 557.65C433.871 557.417 433.771 557.117 433.771 556.75V555.15C433.771 554.817 433.871 554.533 434.071 554.3C434.304 554.067 434.588 553.95 434.921 553.95H446.221C446.554 553.95 446.821 554.067 447.021 554.3C447.254 554.5 447.371 554.783 447.371 555.15V559.95C447.371 562.683 446.804 565.067 445.671 567.1C444.538 569.133 442.904 570.717 440.771 571.85C438.638 572.95 436.121 573.5 433.221 573.5ZM486.654 573C486.321 573 486.038 572.9 485.804 572.7C485.604 572.467 485.504 572.183 485.504 571.85V539.2C485.504 538.833 485.604 538.55 485.804 538.35C486.038 538.117 486.321 538 486.654 538H498.854C502.688 538 505.688 538.9 507.854 540.7C510.021 542.5 511.104 545.1 511.104 548.5C511.104 551.033 510.471 553.117 509.204 554.75C507.971 556.383 506.221 557.517 503.954 558.15L511.654 571.45C511.754 571.65 511.804 571.833 511.804 572C511.804 572.267 511.688 572.5 511.454 572.7C511.254 572.9 511.021 573 510.754 573H508.354C507.854 573 507.454 572.883 507.154 572.65C506.888 572.417 506.638 572.083 506.404 571.65L499.154 558.95H490.404V571.85C490.404 572.183 490.288 572.467 490.054 572.7C489.821 572.9 489.538 573 489.204 573H486.654ZM498.654 554.7C503.621 554.7 506.104 552.617 506.104 548.45C506.104 544.283 503.621 542.2 498.654 542.2H490.404V554.7H498.654ZM546.918 573C546.651 573 546.418 572.9 546.218 572.7C546.018 572.5 545.918 572.267 545.918 572C545.918 571.733 545.935 571.55 545.968 571.45L558.368 539.1C558.635 538.367 559.168 538 559.968 538H563.368C564.168 538 564.701 538.367 564.968 539.1L577.318 571.45L577.418 572C577.418 572.267 577.318 572.5 577.118 572.7C576.918 572.9 576.685 573 576.418 573H573.868C573.501 573 573.218 572.917 573.018 572.75C572.818 572.55 572.685 572.35 572.618 572.15L569.868 565.05H553.468L550.718 572.15C550.651 572.35 550.501 572.55 550.268 572.75C550.068 572.917 549.801 573 549.468 573H546.918ZM568.418 560.75L561.668 543L554.918 560.75H568.418ZM614.914 573C614.581 573 614.297 572.9 614.064 572.7C613.864 572.467 613.764 572.183 613.764 571.85V539.2C613.764 538.833 613.864 538.55 614.064 538.35C614.297 538.117 614.581 538 614.914 538H635.314C635.681 538 635.964 538.117 636.164 538.35C636.397 538.55 636.514 538.833 636.514 539.2V541.2C636.514 541.533 636.397 541.817 636.164 542.05C635.964 542.25 635.681 542.35 635.314 542.35H618.614V554H634.314C634.681 554 634.964 554.117 635.164 554.35C635.397 554.55 635.514 554.833 635.514 555.2V557.2C635.514 557.533 635.397 557.817 635.164 558.05C634.931 558.25 634.647 558.35 634.314 558.35H618.614V571.85C618.614 572.183 618.497 572.467 618.264 572.7C618.031 572.9 617.747 573 617.414 573H614.914ZM675.113 573C674.78 573 674.497 572.9 674.263 572.7C674.063 572.467 673.963 572.183 673.963 571.85V539.15C673.963 538.817 674.063 538.55 674.263 538.35C674.497 538.117 674.78 538 675.113 538H677.763C678.097 538 678.363 538.117 678.563 538.35C678.797 538.55 678.913 538.817 678.913 539.15V571.85C678.913 572.183 678.797 572.467 678.563 572.7C678.363 572.9 678.097 573 677.763 573H675.113ZM716.285 573C716.018 573 715.785 572.9 715.585 572.7C715.385 572.5 715.285 572.267 715.285 572C715.285 571.733 715.302 571.55 715.335 571.45L727.735 539.1C728.002 538.367 728.535 538 729.335 538H732.735C733.535 538 734.068 538.367 734.335 539.1L746.685 571.45L746.785 572C746.785 572.267 746.685 572.5 746.485 572.7C746.285 572.9 746.052 573 745.785 573H743.235C742.868 573 742.585 572.917 742.385 572.75C742.185 572.55 742.052 572.35 741.985 572.15L739.235 565.05H722.835L720.085 572.15C720.018 572.35 719.868 572.55 719.635 572.75C719.435 572.917 719.168 573 718.835 573H716.285ZM737.785 560.75L731.035 543L724.285 560.75H737.785Z" fill="black"/>
<path d="M463.121 0L317.065 146.056L319.186 148.177L463.131 4.23275L837.004 374.626L714.561 498.06L716.69 500.173L841.248 374.607L463.121 0Z" fill="black"/>
<path fill-rule="evenodd" clip-rule="evenodd" d="M173.866 294.998L94.2511 374.612L218.682 498.051L216.569 500.181L90 374.621L174.065 290.556L174.367 290.858L176.095 288.99C176.685 288.231 177.373 287.552 178.141 286.97L179.874 284.977L183.515 279.853C181.084 276.08 179.932 271.624 180.23 267.145C180.38 265.85 180.458 264.547 180.464 263.244C180.47 261.907 180.669 260.579 181.053 259.299L181.851 255.528L182.718 252.113L185.076 244.866L188.543 237.532C189.126 236.343 189.772 235.186 190.476 234.064C191.127 233.024 191.898 231.845 192.773 230.536L194.117 228.941C194.295 228.733 194.465 228.526 194.635 228.319C194.904 227.992 195.172 227.666 195.47 227.337L198.547 224.112C199.731 223.265 200.961 222.484 202.231 221.772C203.525 221.04 204.914 220.488 206.358 220.133C209.548 219.868 211.281 221.205 211.559 224.147C211.961 226.364 211.899 228.639 211.377 230.831L210.51 234.238C210.058 234.779 209.791 235.45 209.747 236.153C209.709 236.8 209.574 237.437 209.348 238.043L206.228 244.978C205.881 246.12 205.413 247.222 204.832 248.264C204.283 249.189 203.805 250.154 203.402 251.151L198.651 260.825L196.05 265.48C195.305 267.102 194.436 268.664 193.45 270.153L190.537 275.215C196.006 270.268 201.98 265.91 208.36 262.212C213.547 258.757 218.986 255.697 224.631 253.058C224.974 253.043 225.31 252.959 225.618 252.81C225.927 252.661 226.202 252.45 226.426 252.191C226.734 252.196 227.036 252.108 227.293 251.939C227.406 251.801 227.7 251.723 228.203 251.679V251.307L233.162 248.663C232.96 246.648 233.169 244.613 233.777 242.681C234.085 240.36 234.912 238.138 236.196 236.179L236.82 234.636C237.056 234.067 237.384 233.54 237.791 233.076L239.759 229.947L244.093 224.39C247.213 220.729 250.582 217.288 254.175 214.091C257.937 210.662 262.29 207.945 267.022 206.072C269.402 204.9 272.063 204.417 274.703 204.677C275.824 204.777 276.892 205.205 277.772 205.908C278.187 206.332 278.468 206.868 278.581 207.451C278.693 208.034 278.632 208.637 278.404 209.185C278.01 210.781 277.319 212.29 276.367 213.632C275.379 215.065 274.321 216.449 273.194 217.784L270.135 221.009L267.066 224.225L263.997 227.45C262.875 228.304 261.839 229.265 260.902 230.319L257.434 233.57C256.832 234.222 256.134 234.777 255.363 235.217L253.629 236.856L249.849 240.497L245.645 243.453L243.226 245.507C245.006 244.886 246.817 244.363 248.653 243.938L253.75 242.776C261.641 240.633 269.71 239.212 277.858 238.529L284.481 237.974C286.573 237.783 288.676 237.728 290.775 237.809L297.337 236.518C297.68 234.491 298.401 232.548 299.461 230.787C300.683 228.769 302.138 226.901 303.796 225.222C305.614 223.336 307.651 221.674 309.864 220.272C312.101 218.842 314.146 217.559 316.028 216.414C317.215 215.816 318.342 215.235 319.4 214.637C320.457 214.039 321.584 213.467 322.763 212.904L330.322 210.034C332.899 209.091 335.59 208.493 338.323 208.257C339.632 207.864 340.982 207.628 342.346 207.555C343.085 207.494 343.827 207.494 344.565 207.555C345.307 207.62 346.052 207.62 346.793 207.555L351.301 208.292L355.168 210.19C355.708 210.525 356.168 210.975 356.515 211.507C356.862 212.04 357.089 212.642 357.177 213.271C357.266 213.901 357.214 214.542 357.027 215.15C356.84 215.757 356.522 216.316 356.095 216.787C354.776 218.563 353.142 220.082 351.275 221.269C350.096 221.858 349.038 222.448 348.093 223.003C347.149 223.558 346.091 224.147 344.894 224.737C342.596 225.896 340.197 226.842 337.726 227.563L331.276 230.337L326.222 231.854C324.625 232.69 322.934 233.333 321.185 233.77L318.637 234.359L316.123 235.304L311.06 236.847C309.278 237.403 307.451 237.804 305.599 238.043C311.273 238.542 316.914 239.367 322.494 240.514C328.031 241.67 333.582 242.996 339.147 244.493C339.245 244.492 339.341 244.472 339.43 244.433C339.52 244.394 339.6 244.338 339.667 244.267C339.924 244.096 340.226 244.006 340.534 244.007C341.478 243.68 342.46 243.473 343.456 243.392L346.767 243.106C347.879 243.002 349.001 243.037 350.105 243.21C351.263 243.414 352.405 243.703 353.52 244.077C354.533 244.169 355.538 244.331 356.528 244.562L358.799 245.108C364.143 246.413 369.333 248.282 374.282 250.682C379.28 253.084 383.864 256.268 387.858 260.114C388.888 261.495 389.987 262.823 391.151 264.093C392.552 265.548 393.631 267.282 394.316 269.182C394.942 270.877 395.216 272.682 395.122 274.487C395.066 275.295 394.789 276.071 394.321 276.732C393.853 277.392 393.213 277.911 392.469 278.232C390.921 279.118 389.098 279.399 387.355 279.021C386.369 278.863 385.41 278.571 384.503 278.154C383.636 277.729 382.63 277.287 381.607 276.906L376.189 274.019L371.855 271.418C371.68 271.062 371.398 270.768 371.049 270.578C370.623 270.339 370.23 270.048 369.878 269.711C369.105 269.479 368.417 269.023 367.902 268.402C367.131 267.968 366.428 267.535 365.761 267.093C365.093 266.651 364.391 266.226 363.619 265.792L355.323 259.819C352.434 257.583 349.66 255.468 347.001 253.474C344.343 251.48 341.696 249.353 339.061 247.094L338.384 247.882C338.176 248.394 337.76 248.55 337.119 248.368C336.477 248.186 336.399 247.804 336.85 247.276L337.162 246.513C333.608 245.568 330.227 244.779 326.941 244.025C323.812 243.306 320.597 242.675 317.25 242.017L316.747 241.918C313.716 241.445 310.659 241.155 307.593 241.051C304.489 240.956 301.334 240.774 298.057 240.557L302.331 242.785L307.081 246.469L309.04 247.796L311.034 249.478L314.666 252.884C317.094 255.274 318.659 258.403 319.113 261.779C319.158 261.976 319.156 262.18 319.109 262.376C319.061 262.573 318.968 262.755 318.838 262.91C318.707 263.064 318.543 263.186 318.358 263.267C318.173 263.347 317.972 263.384 317.77 263.374C316.253 263.001 314.866 262.628 313.592 262.247L309.76 260.712L307.826 259.759L305.85 258.441L302.305 255.771L295.057 248.966L288.911 242.031L288.79 240.566C288.841 240.57 288.892 240.562 288.939 240.543C288.959 240.535 288.977 240.525 288.995 240.514C289.02 240.497 289.042 240.477 289.062 240.454C289.095 240.415 289.118 240.368 289.129 240.319C289.141 240.269 289.14 240.217 289.128 240.167C285.66 240.167 282.193 240.384 278.604 240.687C275.102 240.973 271.625 241.512 268.201 242.3C266.219 242.717 264.26 243.116 262.329 243.51C260.249 243.934 258.2 244.352 256.186 244.779C252.261 245.618 248.388 246.686 244.587 247.978L239.897 249.486L245.48 249.755C247.276 249.892 249.048 250.244 250.76 250.804C252.6 250.927 254.399 251.407 256.056 252.217C257.773 252.544 259.442 253.085 261.023 253.829C262.505 254.533 263.934 255.344 265.297 256.257C267.575 257.039 269.609 258.402 271.201 260.21C273.211 261.461 274.974 263.071 276.402 264.96C276.983 265.905 277.685 266.954 278.526 268.124C279.326 269.154 279.698 270.451 279.566 271.748C279.688 273.213 279.401 274.166 278.699 274.6C277.93 275.051 277.067 275.315 276.177 275.371C275.181 275.449 274.179 275.405 273.194 275.241C272.189 275.077 271.313 274.903 270.594 274.73C266.862 273.463 263.209 271.975 259.654 270.274C255.926 268.477 252.256 266.743 248.644 265.073C247.119 264.466 245.515 263.79 243.842 263.07C242.136 262.321 240.51 261.403 238.987 260.331C237.439 259.482 235.934 258.556 234.479 257.557C233.039 256.554 231.751 255.348 230.656 253.977L225.23 255.546C224.1 255.991 223.028 256.574 222.04 257.28C215.633 260.551 209.443 264.228 203.506 268.289C197.562 272.363 191.927 276.868 186.645 281.769C188.171 281.198 189.76 280.811 191.378 280.616C192.325 280.304 193.306 280.1 194.299 280.009L197.602 279.732C200.861 278.96 204.235 278.795 207.554 279.246C208.424 279.154 209.302 279.206 210.155 279.402L212.426 279.949C213.952 280.479 215.39 281.236 216.691 282.194C217.462 282.619 217.558 283.234 216.847 284.032C214.788 285.928 212.288 287.28 209.574 287.967C206.791 288.704 203.826 289.32 200.653 289.831C198.92 289.976 197.255 290.056 195.66 290.074C194.057 290.074 192.383 290.022 190.65 289.935C189.159 289.805 187.607 289.753 185.995 289.77C184.419 289.78 182.847 289.602 181.313 289.242C180.828 289.242 180.55 288.929 180.446 288.193V287.82C179.446 289.045 178.366 290.204 177.213 291.287C176.795 291.675 176.395 292.082 176.016 292.507L176.186 292.677L174.716 294.148C174.591 294.325 174.47 294.504 174.352 294.686C174.211 294.822 174.045 294.928 173.866 294.998ZM392.949 274.183C392.755 275.069 392.276 275.867 391.585 276.455C390.889 276.863 390.097 277.079 389.29 277.082C388.483 277.085 387.69 276.875 386.991 276.472C385.075 275.64 383.601 275.025 382.578 274.608L377.515 271.704C376.56 271.327 375.65 270.845 374.802 270.265C374.047 269.731 373.263 269.239 372.453 268.792L370.113 267.509L368.153 266.182L366.186 264.873L365.318 263.824L364.148 263.174L356.225 257.167C353.62 255.411 351.109 253.522 348.7 251.506C346.23 249.414 343.594 247.523 340.82 245.854C341.63 245.524 342.488 245.325 343.361 245.264L346.681 244.987L352.289 245.629C353.626 246.084 355.022 246.344 356.433 246.4C361 247.513 365.467 248.997 369.792 250.839C374.115 252.68 378.179 255.081 381.876 257.982L386.67 262.039C388.184 263.292 389.446 264.822 390.389 266.547C391.404 268.084 392.17 269.772 392.66 271.548C393.041 272.371 393.143 273.297 392.949 274.183ZM299.608 236.344C300.13 233.28 301.744 230.508 304.151 228.542C306.662 225.769 309.586 223.4 312.82 221.52C314.724 220.099 316.726 218.813 318.81 217.671C320.943 216.501 323.067 215.461 325.216 214.542L332.438 212.089C334.818 211.401 337.26 210.948 339.728 210.736C340.975 210.343 342.279 210.167 343.585 210.216C345.404 210.185 347.22 210.347 349.003 210.702C350.59 210.603 352.17 210.984 353.537 211.794C353.944 212.262 354.16 212.865 354.144 213.484C354.128 214.103 353.881 214.694 353.451 215.14C352.408 216.93 350.841 218.355 348.961 219.223C347.053 220.531 345.047 221.69 342.962 222.691L336.521 225.465C335.489 225.986 334.401 226.391 333.278 226.67C332.296 226.87 331.329 227.136 330.383 227.467C328.953 228.074 327.28 228.698 325.347 229.366C323.925 229.973 322.252 230.614 320.327 231.273C319.449 231.329 318.586 231.525 317.77 231.854C316.961 232.186 316.103 232.385 315.23 232.443L310.54 233.952L299.608 236.344ZM301.854 245.42C303.183 246.104 304.387 247.007 305.417 248.09L309.777 251.801L313.435 255.554L316.443 260.504C315.733 260.163 314.96 259.974 314.172 259.949L310.705 258.016C308.18 256.602 305.802 254.941 303.605 253.058L296.8 246.99C296.1 245.847 295.262 244.796 294.303 243.86C294.069 243.427 293.718 243.07 293.289 242.829C292.948 242.636 292.623 242.415 292.318 242.17L291.52 241.502L292.162 240.332C292.824 240.573 293.46 240.861 294.07 241.138C294.404 241.289 294.73 241.437 295.048 241.572C295.431 241.733 295.824 241.907 296.227 242.086C296.775 242.329 297.342 242.58 297.927 242.82L301.854 245.42ZM235.242 246.92C235.445 244.411 236.125 241.963 237.245 239.708C237.79 238.028 238.519 236.415 239.42 234.896C240.301 233.436 241.305 232.052 242.42 230.761C244.744 227.166 247.447 223.829 250.482 220.81L255.684 216.293C256.632 215.712 257.505 215.016 258.284 214.221C259.155 213.365 260.159 212.657 261.258 212.123L264.084 210.39C265.555 209.502 267.105 208.751 268.713 208.144C270.103 207.588 271.56 207.218 273.047 207.043C273.581 206.95 274.129 207.072 274.573 207.382C275.016 207.693 275.319 208.166 275.414 208.699C275.375 210.304 274.702 211.829 273.541 212.938C272.695 213.989 271.949 214.858 271.345 215.562C271.027 215.931 270.749 216.255 270.516 216.536L265.419 222.136C263.769 224.079 261.931 225.853 259.931 227.433C252.381 234.746 244.109 241.275 235.242 246.92ZM232.824 253.422C241.352 251.928 250.124 252.73 258.241 255.745L260.529 256.681C261.041 256.7 261.544 256.821 262.009 257.036C262.473 257.252 262.89 257.559 263.234 257.938L268.661 260.825C272.061 262.949 274.862 265.906 276.801 269.416C278.014 272.017 277.373 273.178 274.868 272.883C273.841 272.961 272.81 272.795 271.859 272.398C271.15 272.055 270.376 271.868 269.588 271.852C268.054 271.228 266.459 270.629 264.812 270.023C263.15 269.423 261.539 268.692 259.992 267.838C259.24 267.423 258.464 267.052 257.669 266.729L254.99 265.654L250.343 263.452L248.02 262.16L245.714 261.241C244.792 260.872 243.889 260.455 243.009 259.993C242.139 259.512 241.239 259.089 240.314 258.727L235.624 255.788L234.219 254.609L232.824 253.422ZM190.814 283.078C191.537 282.898 192.274 282.776 193.016 282.714C194.443 282.323 195.908 282.093 197.385 282.029C199.228 281.823 201.085 281.789 202.933 281.925C204.796 281.85 206.661 281.939 208.507 282.194C209.651 282.183 210.791 282.341 211.888 282.662C212.551 282.754 213.194 282.95 213.795 283.243C212.943 283.765 212.047 284.212 211.117 284.578C210.285 284.89 209.262 285.228 208.057 285.575C207.677 285.586 207.304 285.681 206.964 285.852C206.748 285.993 206.502 286.079 206.245 286.103L204.034 286.285C202.607 286.692 201.139 286.939 199.657 287.022L195.227 287.386C194.485 287.447 193.74 287.447 192.999 287.386C192.133 287.317 191.264 287.317 190.398 287.386C190.164 287.404 188.786 287.274 186.281 286.979L182.605 287.291L182.51 286.199C184.187 284.886 186.135 283.962 188.214 283.494C189.091 283.43 189.961 283.291 190.814 283.078ZM184.841 277.799C183.515 275.091 182.757 272.141 182.614 269.13H182.596C182.683 267.153 182.796 265.116 183.038 263.244C183.281 261.371 183.567 259.525 183.905 257.791L185.561 250.986L186.749 247.518L187.98 244.45C188.347 243.231 188.871 242.065 189.54 240.982C190.19 239.968 190.849 238.806 191.482 237.514C191.928 236.406 192.51 235.358 193.216 234.394C194.004 233.345 194.707 232.296 195.357 231.247C195.85 230.948 196.262 230.531 196.553 230.033C196.972 229.417 197.491 228.875 198.088 228.43C198.582 227.892 199.145 227.285 199.821 226.618C200.562 225.899 201.386 225.27 202.275 224.745C203.301 223.583 204.655 222.758 206.158 222.379C207.372 222.171 208.187 223.029 208.586 224.979L208.82 227.745C208.863 228.826 208.701 229.905 208.343 230.926C208.164 231.538 207.998 232.115 207.84 232.66C207.661 233.28 207.494 233.858 207.337 234.394C207.247 234.702 207.154 235.023 207.057 235.358C206.839 236.113 206.602 236.934 206.332 237.818L200.662 249.781C198.368 254.913 195.929 259.75 193.346 264.293C190.762 268.835 187.928 273.337 184.841 277.799Z" fill="black"/>
<path d="M601.578 611.042L463.143 746.005L329.19 611.06L327.061 613.173L463.108 750.228L603.673 613.19L601.578 611.042Z" fill="black"/>
<path d="M239.087 345.77L238.548 378.871L237.74 410.358C241.153 406.591 244.297 403.272 247.171 400.401C250.045 397.53 252.739 394.839 255.254 392.327C257.949 389.636 260.643 386.945 263.338 384.254C266.212 381.563 269.266 378.602 272.499 375.373C273.218 374.476 274.026 374.296 274.924 374.835C276.002 375.193 276.002 376.091 274.924 377.526C270.793 381.294 267.2 384.702 264.146 387.752C261.272 390.623 258.488 393.494 255.793 396.364C253.099 399.055 250.314 401.926 247.44 404.976C244.746 407.847 241.512 411.256 237.74 415.203C237.56 421.123 237.291 427.672 236.932 434.848C236.572 442.204 236.033 449.65 235.315 457.185C234.596 464.721 233.608 472.166 232.351 479.522C231.093 486.878 229.477 493.696 227.501 499.975C224.447 508.946 220.854 515.495 216.723 519.621C212.411 523.927 208.28 525.901 204.328 525.542C200.196 525.362 196.693 522.851 193.819 518.006C190.945 513.342 189.418 506.614 189.239 497.822C189.059 490.646 190.047 483.559 192.202 476.562C194.358 469.744 197.232 463.016 200.825 456.378C204.238 449.919 208.19 443.729 212.681 437.809C217.172 431.888 221.573 426.326 225.884 421.123L227.501 348.73C220.854 355.009 213.04 359.585 204.058 362.455C194.897 365.146 185.017 366.761 174.419 367.299C163.82 367.658 152.862 367.299 141.545 366.223C130.049 365.146 118.642 363.89 107.325 362.455C96.008 360.84 84.9604 359.405 74.1823 358.149C63.4042 356.714 53.5243 356.086 44.5426 356.265C35.3812 356.445 27.3874 357.701 20.5613 360.033C13.5555 362.365 8.16648 366.313 4.39414 371.874C4.93305 373.13 4.93305 374.655 4.39414 376.449C3.6756 378.243 2.86724 379.23 1.96907 379.41C1.0709 379.41 0.442176 378.602 0.0829111 376.988C-0.276365 375.373 0.531987 372.951 2.50798 369.721C6.99885 362.365 13.0166 357.073 20.5613 353.843C27.9263 350.434 36.3692 348.551 45.8898 348.192C55.4105 347.654 65.6497 348.102 76.6074 349.537C87.5651 350.973 98.7923 352.677 110.289 354.651C121.786 356.445 133.282 358.149 144.779 359.764C156.096 361.379 166.874 362.186 177.113 362.186C187.352 362.007 196.873 360.661 205.675 358.149C214.298 355.637 221.663 351.062 227.77 344.424C228.129 343.527 228.938 342.899 230.195 342.54C231.453 342.181 232.71 342.092 233.968 342.271C235.405 342.451 236.572 342.809 237.47 343.348C238.548 343.886 239.087 344.693 239.087 345.77ZM225.615 426.237C221.663 430.901 217.711 436.015 213.759 441.576C209.627 447.138 206.034 452.969 202.981 459.069C199.747 465.169 197.142 471.449 195.166 477.908C193.19 484.546 192.292 491.184 192.472 497.822C192.652 504.64 193.64 509.843 195.436 513.431C197.053 517.199 199.118 519.262 201.633 519.621C203.969 520.159 206.573 518.814 209.447 515.584C212.142 512.534 214.657 507.511 216.992 500.514C218.609 495.131 219.956 489.211 221.034 482.752C222.112 476.472 223.01 470.013 223.728 463.375C224.447 456.916 224.986 450.457 225.345 443.998C225.525 437.54 225.615 431.619 225.615 426.237Z" fill="black"/>
<path d="M274.39 354.92C274.569 353.664 275.288 352.767 276.545 352.229C277.982 351.69 279.419 351.511 280.857 351.69C282.294 351.69 283.551 352.049 284.629 352.767C285.707 353.484 286.156 354.471 285.976 355.727C284.719 364.877 283.641 374.655 282.743 385.061C282.563 388.649 282.473 392.238 282.473 395.826C282.473 399.235 282.833 404.079 283.551 410.358C284.09 414.844 284.809 418.522 285.707 421.392C286.605 424.442 287.683 426.416 288.94 427.313C290.377 428.39 291.994 428.3 293.79 427.044C295.587 425.967 297.652 423.366 299.988 419.239C301.425 416.907 302.952 413.857 304.568 410.089C306.185 406.142 307.802 402.016 309.419 397.71C311.035 393.225 312.562 388.739 313.999 384.254C315.436 379.589 316.694 375.283 317.772 371.336C319.029 367.389 320.017 364.07 320.736 361.379C321.634 358.508 322.262 356.714 322.622 355.996C322.622 355.637 322.622 355.458 322.622 355.458C322.801 355.458 322.891 355.368 322.891 355.189C323.43 354.112 324.328 353.395 325.586 353.036C326.843 352.677 328.101 352.587 329.358 352.767C330.795 352.946 331.963 353.395 332.861 354.112C333.759 354.83 334.118 355.817 333.939 357.073C333.579 359.405 333.31 361.199 333.13 362.455C333.13 363.532 333.13 364.608 333.13 365.685C333.13 366.761 333.04 367.927 332.861 369.183C332.681 370.439 332.502 372.323 332.322 374.835C332.142 376.629 331.963 379.858 331.783 384.523C331.603 389.188 331.424 394.211 331.244 399.594C331.244 404.976 331.244 410.358 331.244 415.741C331.424 420.944 331.693 425.16 332.053 428.39C332.591 432.875 333.22 436.553 333.939 439.423C334.837 442.473 335.915 444.447 337.172 445.344C338.609 446.421 340.226 446.331 342.022 445.075C343.998 443.819 346.244 441.128 348.759 437.001C350.914 433.593 353.07 428.748 355.225 422.469C357.561 416.189 359.716 409.82 361.692 403.361C363.848 396.902 365.644 391.072 367.081 385.869C368.518 380.486 369.506 376.988 370.045 375.373C370.405 374.476 371.033 374.117 371.931 374.296C372.83 374.476 373.279 375.193 373.279 376.449C372.201 379.499 370.854 383.895 369.237 389.636C367.62 395.198 365.824 401.119 363.848 407.398C361.872 413.678 359.716 419.688 357.381 425.429C355.225 431.35 353.07 436.015 350.914 439.423C344.807 448.394 339.148 451.624 333.939 449.112C328.729 446.6 324.777 439.782 322.083 428.659C320.286 420.764 319.388 411.704 319.388 401.478C319.568 391.072 320.107 381.114 321.005 371.605C319.748 375.732 318.31 380.217 316.694 385.061C315.257 389.905 313.73 394.66 312.113 399.325C310.496 403.81 308.88 408.116 307.263 412.242C305.646 416.189 304.029 419.329 302.413 421.662C299.539 426.147 296.664 429.107 293.79 430.542C290.916 432.157 288.222 432.426 285.707 431.35C283.192 430.273 280.857 427.941 278.701 424.353C276.725 420.944 275.018 416.369 273.581 410.628C272.504 405.783 271.785 401.119 271.426 396.633C271.066 391.969 271.066 387.394 271.426 382.908C271.605 378.423 271.965 373.938 272.504 369.452C273.042 364.787 273.671 359.943 274.39 354.92Z" fill="black"/>
<path d="M462.766 400.401L455.222 384.792C450.91 376.539 447.228 368.735 444.174 361.379C441.12 354.023 440.581 347.205 442.557 340.926C443.815 337.158 445.881 334.467 448.755 332.852C451.449 331.058 453.964 330.25 456.3 330.43C458.814 330.609 460.701 331.686 461.958 333.659C463.215 335.633 463.126 338.324 461.689 341.733C460.431 344.962 457.826 348.371 453.874 351.959C452.976 352.498 452.168 352.408 451.449 351.69C450.91 350.973 451.09 350.165 451.988 349.268C455.401 346.039 457.647 343.168 458.725 340.656C459.623 338.503 459.713 336.799 458.994 335.543C458.455 334.287 457.557 333.57 456.3 333.39C455.042 333.211 453.695 333.659 452.258 334.736C450.821 335.812 449.833 337.696 449.294 340.387C448.575 343.437 448.665 346.667 449.563 350.076C450.282 353.484 451.36 356.893 452.797 360.302C454.234 363.532 455.85 366.671 457.647 369.721C459.623 372.771 461.419 375.463 463.036 377.795L472.197 393.673C476.329 391.161 480.73 388.38 485.4 385.33C490.071 382.28 494.023 378.961 497.256 375.373C497.975 374.835 498.693 374.924 499.412 375.642C500.31 376.18 500.31 376.898 499.412 377.795C496.178 381.563 492.137 384.971 487.287 388.022C482.616 390.892 478.125 393.763 473.814 396.633C475.79 400.58 477.676 404.976 479.472 409.82C481.448 414.485 482.706 419.329 483.245 424.353C483.963 429.376 483.784 434.22 482.706 438.885C481.628 443.55 479.113 447.766 475.161 451.534C472.287 454.225 469.054 456.109 465.461 457.185C462.048 458.262 458.725 458.441 455.491 457.724C452.258 457.185 449.294 455.75 446.599 453.418C443.905 451.265 441.929 448.125 440.671 443.998C439.234 439.693 438.965 435.387 439.863 431.081C440.761 426.954 442.378 423.007 444.713 419.239C446.869 415.472 449.563 411.973 452.797 408.744C456.03 405.514 459.353 402.733 462.766 400.401ZM467.886 445.075C469.682 442.025 470.76 438.706 471.119 435.118C471.479 431.529 471.299 427.851 470.581 424.084C470.042 420.495 469.143 416.907 467.886 413.319C466.629 409.731 465.281 406.411 463.844 403.361C460.79 405.514 457.737 408.026 454.683 410.897C451.809 413.767 449.384 416.907 447.408 420.316C445.432 423.725 444.084 427.313 443.366 431.081C442.468 434.848 442.557 438.885 443.635 443.191C445.971 450.368 449.563 454.046 454.413 454.225C459.443 454.404 463.934 451.354 467.886 445.075Z" fill="black"/>
<path d="M552.999 344.693C553.359 343.437 554.167 342.54 555.424 342.002C556.861 341.464 558.298 341.284 559.736 341.464C561.173 341.464 562.34 341.823 563.238 342.54C564.316 343.258 564.765 344.245 564.586 345.501C564.047 350.165 563.508 355.009 562.969 360.033C562.61 364.877 562.25 369.811 561.891 374.835C561.712 376.629 561.532 378.961 561.352 381.832C561.352 384.523 561.263 387.483 561.083 390.713C561.083 393.763 561.173 396.992 561.352 400.401C561.532 403.81 561.801 407.129 562.161 410.358C563.059 420.047 564.855 425.967 567.55 428.12C570.244 430.273 574.017 427.313 578.867 419.239C581.022 415.831 583.178 411.883 585.334 407.398C587.489 402.733 589.465 398.248 591.262 393.942C593.237 389.636 594.854 385.779 596.112 382.37C597.549 378.961 598.537 376.629 599.076 375.373C599.435 374.476 600.064 374.117 600.962 374.296C602.04 374.476 602.579 375.193 602.579 376.449C601.501 378.782 600.153 381.832 598.537 385.599C597.1 389.188 595.393 393.135 593.417 397.441C591.621 401.747 589.645 406.053 587.489 410.358C585.334 414.485 583.178 418.253 581.022 421.662C577.969 426.147 575.005 429.107 572.13 430.542C569.256 432.157 566.562 432.426 564.047 431.35C561.532 430.273 559.197 427.941 557.041 424.353C555.065 420.944 553.448 416.369 552.191 410.628C550.754 404.886 549.945 398.876 549.766 392.597C549.766 386.138 549.945 380.038 550.305 374.296C547.79 379.32 545.185 384.074 542.491 388.56C539.976 393.045 537.102 397.351 533.868 401.478C530.635 405.783 527.222 409.731 523.629 413.319C520.036 416.728 516.174 418.342 512.042 418.163C508.45 418.163 505.216 416.548 502.342 413.319C499.468 409.91 497.312 404.169 495.875 396.095C495.157 391.43 495.067 386.317 495.606 380.755C496.145 375.193 497.312 369.721 499.109 364.339C501.085 358.957 503.51 354.112 506.384 349.806C509.438 345.321 512.851 342.002 516.623 339.849C520.575 337.517 524.976 336.62 529.826 337.158C534.676 337.517 539.886 339.939 545.455 344.424C546.892 345.321 548.059 346.487 548.958 347.923C550.035 349.358 551.023 350.883 551.921 352.498L552.999 344.693ZM544.107 347.654C539.976 344.065 536.114 342.361 532.521 342.54C529.108 342.54 525.964 343.886 523.09 346.577C520.396 349.089 517.97 352.498 515.815 356.804C513.659 361.11 511.863 365.595 510.426 370.26C508.989 374.924 507.911 379.499 507.192 383.985C506.474 388.47 506.204 392.148 506.384 395.019C506.743 400.76 507.462 405.066 508.54 407.936C509.797 410.628 511.324 412.332 513.12 413.05C514.737 413.767 516.354 413.857 517.97 413.319C519.587 412.601 521.204 411.525 522.821 410.089C524.437 408.654 525.964 406.95 527.401 404.976C529.018 402.823 530.545 400.67 531.982 398.517C535.934 393.314 539.527 387.663 542.76 381.563C545.993 375.463 548.598 370.529 550.574 366.761L551.383 358.418C550.305 354.471 547.88 350.883 544.107 347.654Z" fill="black"/>
<path d="M601.212 344.693C601.392 343.437 602.11 342.54 603.368 342.002C604.805 341.464 606.242 341.284 607.679 341.464C609.296 341.464 610.553 341.823 611.451 342.54C612.529 343.258 612.978 344.245 612.799 345.501C612.08 350.165 611.451 355.009 610.913 360.033C610.374 364.877 610.014 369.811 609.835 374.835C609.655 376.629 609.475 378.961 609.296 381.832C609.116 384.523 609.026 387.483 609.026 390.713C609.026 393.763 609.116 396.992 609.296 400.401C609.475 403.81 609.745 407.129 610.104 410.358C610.643 414.844 611.362 418.522 612.26 421.392C613.158 424.442 614.236 426.416 615.493 427.313C616.93 428.39 618.547 428.3 620.343 427.044C622.14 425.967 624.295 423.366 626.81 419.239C628.786 415.831 630.852 411.883 633.008 407.398C635.343 402.733 637.409 398.248 639.205 393.942C641.181 389.636 642.888 385.779 644.325 382.37C645.762 378.961 646.66 376.629 647.019 375.373C647.378 374.476 648.007 374.117 648.905 374.296C649.804 374.476 650.163 375.193 649.983 376.449C649.085 378.782 647.828 381.832 646.211 385.599C644.774 389.188 643.157 393.135 641.361 397.441C639.564 401.747 637.588 406.053 635.433 410.358C633.277 414.485 631.122 418.253 628.966 421.662C623.038 430.632 617.379 433.862 611.99 431.35C606.781 428.838 602.919 421.931 600.404 410.628C599.146 405.783 598.338 400.58 597.979 395.019C597.62 389.277 597.62 383.536 597.979 377.795C598.159 372.054 598.518 366.402 599.057 360.84C599.775 355.099 600.494 349.717 601.212 344.693ZM614.954 319.934C616.391 321.728 617.11 323.792 617.11 326.124C617.11 328.277 616.391 330.161 614.954 331.775C613.338 333.211 611.362 333.928 609.026 333.928C606.871 333.928 604.985 333.211 603.368 331.775C601.931 330.161 601.212 328.277 601.212 326.124C601.212 323.792 601.931 321.728 603.368 319.934C604.985 318.499 606.871 317.781 609.026 317.781C611.362 317.781 613.338 318.499 614.954 319.934Z" fill="black"/>
<path d="M807.811 390.174C818.05 390.354 828.469 391.161 839.067 392.596C849.845 393.852 860.444 395.198 870.863 396.633C881.282 398.069 891.341 399.324 901.041 400.401C910.742 401.298 919.634 401.567 927.717 401.208C935.98 400.67 943.255 399.235 949.543 396.902C955.83 394.57 960.68 390.802 964.093 385.599C963.554 384.343 963.554 382.818 964.093 381.024C964.812 379.23 965.62 378.243 966.518 378.064C967.416 378.064 968.045 378.871 968.404 380.486C968.764 382.101 967.955 384.523 965.979 387.752C961.848 394.57 956.459 399.594 949.812 402.823C943.166 406.052 935.621 408.116 927.178 409.013C918.735 409.91 909.574 409.82 899.694 408.744C889.814 407.667 879.665 406.322 869.246 404.707C858.827 403.092 848.318 401.388 837.72 399.594C827.301 397.799 817.062 396.544 807.002 395.826C793.709 394.929 783.111 395.198 775.207 396.633C767.483 397.889 761.016 400.401 755.807 404.169C750.777 407.936 746.286 412.96 742.334 419.239C738.562 425.519 733.981 433.054 728.592 441.845C725.897 446.51 723.113 449.56 720.239 450.996C717.365 452.61 714.67 452.79 712.155 451.534C709.64 450.457 707.305 448.125 705.149 444.537C703.173 441.128 701.557 436.553 700.299 430.812C699.401 427.941 698.772 424.442 698.413 420.316C698.054 416.189 697.784 411.973 697.605 407.667C697.425 403.361 697.335 399.235 697.335 395.288C697.335 391.161 697.425 387.663 697.605 384.792C695.27 389.816 692.844 394.57 690.33 399.055C687.815 403.541 684.851 407.847 681.438 411.973C678.204 416.279 674.791 420.226 671.198 423.814C667.785 427.223 664.013 428.838 659.881 428.659C656.289 428.659 652.965 427.044 649.912 423.814C646.858 420.406 644.612 414.664 643.175 406.591C642.457 402.105 642.457 397.172 643.175 391.789C643.714 386.227 644.792 380.845 646.409 375.642C648.026 370.439 650.181 365.684 652.876 361.379C655.75 356.893 658.983 353.395 662.576 350.883C665.809 348.909 669.043 347.923 672.276 347.923C675.689 347.923 679.013 348.64 682.246 350.076C685.479 351.331 688.533 353.215 691.407 355.727C694.282 358.239 696.886 360.93 699.221 363.801C699.581 352.677 700.299 341.464 701.377 330.161C702.635 318.678 704.251 307.555 706.227 296.79C708.203 286.025 710.628 275.798 713.502 266.11C716.556 256.422 720.149 247.81 724.281 240.275C727.334 234.713 731.107 230.497 735.598 227.626C740.088 224.755 744.4 223.589 748.531 224.127C752.843 224.486 756.435 226.639 759.309 230.586C762.363 234.533 763.89 240.544 763.89 248.617C763.89 256.153 762.363 264.316 759.309 273.107C756.435 281.719 752.573 290.151 747.723 298.404C743.052 306.478 737.663 313.924 731.556 320.741C725.628 327.38 719.43 332.583 712.964 336.35C712.425 343.168 711.796 350.703 711.077 358.956C710.539 367.03 710.089 375.283 709.73 383.716C709.371 392.148 709.101 400.491 708.922 408.744C708.922 416.817 709.191 424.173 709.73 430.812C710.988 440.5 713.053 446.241 715.927 448.035C718.981 449.829 722.574 446.959 726.706 439.423C731.556 430.632 736.047 423.097 740.178 416.817C744.49 410.538 749.43 405.425 754.998 401.477C760.747 397.351 767.752 394.391 776.015 392.596C784.279 390.802 794.877 389.995 807.811 390.174ZM713.502 332.314C719.251 328.546 724.909 323.433 730.478 316.974C736.047 310.515 740.987 303.518 745.298 295.982C749.789 288.447 753.381 280.643 756.076 272.569C758.771 264.495 760.208 256.96 760.387 249.963C760.746 244.042 760.118 239.288 758.501 235.7C757.064 232.111 754.998 230.048 752.304 229.51C749.789 228.792 746.915 229.599 743.681 231.932C740.448 234.085 737.394 237.942 734.52 243.504C731.286 249.604 728.502 256.332 726.167 263.688C723.832 270.865 721.766 278.4 719.969 286.294C718.173 294.009 716.736 301.813 715.658 309.708C714.76 317.602 714.041 325.137 713.502 332.314ZM698.952 368.914C697.335 366.761 695.449 364.518 693.294 362.186C691.318 359.674 689.072 357.611 686.557 355.996C684.042 354.381 681.348 353.574 678.474 353.574C675.779 353.574 672.995 354.92 670.121 357.611C667.426 360.302 665.001 363.801 662.845 368.107C660.869 372.412 659.163 376.898 657.726 381.563C656.468 386.048 655.48 390.533 654.762 395.019C654.223 399.325 653.953 402.823 653.953 405.514C654.313 411.255 655.121 415.561 656.379 418.432C657.636 421.123 659.253 422.828 661.229 423.545C662.666 424.263 664.103 424.353 665.54 423.814C667.157 423.097 668.773 422.02 670.39 420.585C672.007 419.15 673.534 417.445 674.971 415.472C676.588 413.319 678.204 411.166 679.821 409.013C683.773 403.81 687.276 398.158 690.33 392.058C693.563 385.958 696.168 381.024 698.144 377.257L698.952 368.914Z" fill="black"/>
</svg>
